HIERARCHY
ROOT Hips
{
	OFFSET 0.0000 0.0000 0.0000
	CHANNELS 6 Xposition Yposition Zposition Zrotation Xrotation Yrotation
	JOINT Ab
	{
		OFFSET -0.0000 8.0846 -0.0000
		CHANNELS 3 Zrotation Xrotation Yrotation
		JOINT Chest
		{
			OFFSET -0.0000 25.0068 -0.0000
			CHANNELS 3 Zrotation Xrotation Yrotation
			JOINT Neck
			{
				OFFSET -0.0000 25.0068 0.0000
				CHANNELS 3 Zrotation Xrotation Yrotation
				JOINT Head
				{
					OFFSET -0.0000 10.7556 0.0000
					CHANNELS 3 Zrotation Xrotation Yrotation
					End Site
					{
						OFFSET -0.0000 16.6222 0.0000
					}
				}
			}
			JOINT LeftCollar
			{
				OFFSET -0.0000 25.0068 0.0000
				CHANNELS 3 Zrotation Xrotation Yrotation
				JOINT LeftShoulder
				{
					OFFSET 19.5556 -0.0000 0.0000
					CHANNELS 3 Zrotation Xrotation Yrotation
					JOINT LeftElbow
					{
						OFFSET 27.1828 0.0000 0.0000
						CHANNELS 3 Zrotation Xrotation Yrotation
						JOINT LeftWrist
						{
							OFFSET 23.3157 0.0000 0.0000
							CHANNELS 3 Zrotation Xrotation Yrotation
							End Site
							{
								OFFSET 0.0000 -14.6667 0.0000
							}
						}
					}
				}
			}
			JOINT RightCollar
			{
				OFFSET -0.0000 25.0068 0.0000
				CHANNELS 3 Zrotation Xrotation Yrotation
				JOINT RightShoulder
				{
					OFFSET -19.5556 0.0000 0.0000
					CHANNELS 3 Zrotation Xrotation Yrotation
					JOINT RightElbow
					{
						OFFSET -27.1828 0.0000 0.0000
						CHANNELS 3 Zrotation Xrotation Yrotation
						JOINT RightWrist
						{
							OFFSET -23.3157 0.0000 0.0000
							CHANNELS 3 Zrotation Xrotation Yrotation
							End Site
							{
								OFFSET -0.0000 -14.6667 0.0000
							}
						}
					}
				}
			}
		}
	}
	JOINT LeftHip
	{
		OFFSET 11.7333 0.0000 0.0000
		CHANNELS 3 Zrotation Xrotation Yrotation
		JOINT LeftKnee
		{
			OFFSET -0.0000 -40.8688 0.0000
			CHANNELS 3 Zrotation Xrotation Yrotation
			JOINT LeftAnkle
			{
				OFFSET -0.0000 -44.4337 0.0000
				CHANNELS 3 Zrotation Xrotation Yrotation
				End Site
				{
					OFFSET -0.0000 -4.8889 16.6222
				}
			}
		}
	}
	JOINT RightHip
	{
		OFFSET -11.7333 0.0000 0.0000
		CHANNELS 3 Zrotation Xrotation Yrotation
		JOINT RightKnee
		{
			OFFSET -0.0000 -40.8688 0.0000
			CHANNELS 3 Zrotation Xrotation Yrotation
			JOINT RightAnkle
			{
				OFFSET -0.0000 -44.4337 0.0000
				CHANNELS 3 Zrotation Xrotation Yrotation
				End Site
				{
					OFFSET -0.0000 -4.8889 16.6222
				}
			}
		}
	}
}
MOTION
Frames: 23
Frame Time: 0.010000
0.2658 88.1176 47.0287 2.3926 358.5883 184.6657 4.8054 7.3498 359.2321 355.2649 8.0115 359.8492 2.0088 345.8270 356.3344 7.2187 14.9918 355.1091 339.7770 358.2567 9.9576 301.2450 24.5143 358.8380 14.6428 354.6682 319.6429 84.5127 357.5079 338.0095 20.1897 359.2027 355.5571 46.9361 45.0941 19.0243 336.7279 352.2488 36.9741 276.2906 351.2369 14.7628 4.0927 354.1788 355.5262 357.5865 19.2711 353.9918 358.0067 346.9066 22.6630 3.0084 341.5943 4.7116 359.8392 24.3893 6.7517 354.6607 349.2885 337.4597 
0.1646 88.0428 46.7866 2.7292 358.5935 184.1246 4.8221 6.9844 359.4052 355.0850 7.8434 0.0337 1.9278 345.9266 356.2745 7.6806 15.2776 354.9798 339.7661 358.2035 10.3023 301.0098 23.8168 359.5062 14.5465 354.7089 319.8782 84.5814 357.5296 337.8524 20.3351 359.2036 355.5471 45.9632 45.4687 19.8203 336.9972 352.3280 36.9570 276.6101 351.1856 15.1190 4.4286 354.7093 356.0517 357.5623 18.8144 354.0241 358.0402 346.7541 22.6748 3.4292 341.4780 5.0183 359.8470 24.7787 7.0065 354.5604 349.1225 337.3580 
0.0475 87.9765 46.5540 3.0085 358.7603 183.8334 4.9695 6.8433 359.3387 354.7980 7.6129 359.9892 1.6892 346.1192 356.1445 8.3141 15.4600 354.7828 339.8374 358.1733 10.4147 300.6427 22.8677 0.3377 14.3928 354.7820 320.0255 84.5871 357.5225 337.5306 20.5615 359.1974 355.5828 45.1598 45.5333 20.3774 337.4430 352.4847 37.0665 276.7829 351.2085 15.6439 4.6462 355.2475 356.2711 357.6571 18.4865 354.2123 358.0145 346.7305 22.5118 3.7053 341.5622 5.0373 359.8761 25.1198 7.2814 354.5455 348.9005 337.2626 
-0.0782 87.9372 46.3407 3.1807 358.7445 183.4463 5.2944 6.8590 359.1293 354.1174 6.7428 359.8005 1.1956 346.6465 356.1894 9.4032 15.6636 354.7461 339.9258 358.1448 10.7509 300.3195 21.5452 1.3972 14.1237 354.9164 320.1506 84.6272 357.3747 337.3132 21.0605 359.2028 355.8697 44.3211 46.2021 20.6309 337.6648 352.5585 36.8868 276.8958 350.7605 16.2423 4.7500 355.6173 356.5692 357.7391 18.1528 354.4610 358.0158 346.7162 22.3270 3.8901 341.4331 5.0545 359.8424 25.4972 7.7034 354.4694 348.7154 337.1379 
-0.1996 87.9240 46.1269 3.3128 358.7218 183.0962 5.2667 6.6070 359.1226 353.7952 6.5205 359.7806 1.0862 346.6314 356.2290 9.9492 15.9425 354.6970 339.9604 358.0914 11.1775 300.1975 20.7552 1.9426 13.9274 354.9971 320.3014 84.9116 357.3346 337.1285 21.2834 359.2316 356.1555 43.6856 46.2647 21.1281 338.1072 352.7476 36.8841 277.0172 350.6683 16.7532 4.8265 355.9393 356.7398 357.7373 17.8919 354.6915 358.1187 346.6932 22.2746 4.0524 341.3390 5.0409 359.7523 25.8093 8.0955 354.3095 348.6331 337.0731 
-0.3317 87.9241 45.9228 3.3829 358.6750 182.7886 5.2612 6.3041 359.0690 353.3840 6.3630 359.7318 0.9706 346.6228 356.2430 10.4708 16.1439 354.6117 340.0118 358.0391 11.4396 300.1164 20.1347 2.5130 13.8018 355.0333 320.5131 85.0132 357.3225 336.8737 21.5281 359.2534 356.2858 42.9927 46.4949 21.7422 338.4704 352.8749 36.8199 277.0352 350.6729 17.5105 4.8233 356.1951 356.8325 357.7238 17.6927 354.8637 358.1320 346.6175 22.2802 4.1272 341.2190 4.9676 359.6619 26.1250 8.5461 354.1538 348.5497 336.9639 
-0.4683 87.9415 45.7203 3.4284 358.6382 182.4724 5.1617 6.0141 359.1046 353.1056 6.3981 359.7880 0.8334 346.2638 356.1919 10.9137 16.4743 354.4821 340.0966 357.9912 11.7802 300.0136 19.9727 2.7925 13.9384 354.9635 320.7991 84.8185 357.4216 336.8338 21.5528 359.2700 356.2580 42.4119 46.5776 22.5205 338.8129 353.0062 36.7712 277.0511 350.6723 18.1478 4.7875 356.4503 356.9882 357.7254 17.5406 354.8285 358.1960 346.5132 22.4562 4.1787 341.1380 4.9049 359.5422 26.3902 9.0691 354.1060 348.5191 336.8859 
-0.6011 87.9643 45.5174 3.4807 358.5700 182.1667 5.0960 5.7073 359.1553 352.7845 6.3964 359.8239 0.7743 345.9778 356.1395 11.2931 16.7391 354.3487 340.2284 357.9674 11.9947 299.9152 19.6192 3.1366 13.9474 354.9964 321.0394 84.8025 357.4951 336.7186 21.5693 359.2776 356.2252 42.0367 46.6490 23.1078 339.1826 353.1411 36.7161 276.9114 350.6666 18.6710 4.7691 356.7061 357.0224 357.6882 17.3258 354.9075 358.1990 346.4348 22.6026 4.2422 341.0375 4.9202 359.4549 26.6356 9.5028 354.0292 348.4798 336.7828 
-0.7231 87.9879 45.3205 3.5774 358.4569 181.8901 5.0783 5.5119 359.2251 352.4512 6.0152 359.8357 0.7474 346.0561 356.0713 11.6507 16.8643 354.2455 340.2883 357.9427 12.0710 299.9005 19.1792 3.7409 13.9151 355.0481 321.2376 84.5669 357.6395 336.2762 21.6758 359.2811 356.2577 42.0059 46.6958 23.1653 339.6207 353.3098 36.6979 276.7195 350.6617 19.2462 4.8067 356.9298 357.1302 357.6742 17.0527 355.1021 358.0870 346.3731 22.5065 4.3737 340.8610 4.9443 359.3519 26.9453 9.8453 353.9032 348.3516 336.6600 
-0.8357 88.0094 45.1337 3.7000 358.3214 181.6721 5.2789 5.3133 359.1132 351.9011 5.5774 359.7227 0.6094 346.2873 356.0373 12.1665 16.8980 354.1311 340.4252 357.9369 12.0963 299.8835 18.8345 4.3605 13.8838 355.1076 321.5502 84.5456 357.6212 335.9550 21.8764 359.2925 356.3693 42.1663 46.6919 22.9507 340.0592 353.4629 36.7518 276.6397 350.7705 19.9498 4.8630 357.1080 357.3275 357.7088 16.7604 355.3617 358.0225 346.3510 22.2698 4.5302 340.6601 4.9141 359.2297 27.2466 10.1226 353.8089 348.1910 336.5917 
-0.9352 88.0262 44.9450 3.8416 358.2072 181.4388 5.3824 5.1777 359.0577 351.4921 5.0872 359.6786 0.5720 346.4794 356.0664 12.5179 17.0161 354.0995 340.4995 357.9197 12.2064 299.9316 18.4465 4.9581 13.8156 355.1873 321.7614 84.4512 357.7408 335.6193 21.9818 359.3090 356.5422 42.3012 47.0124 22.7894 340.3140 353.5191 36.7096 276.6027 350.8479 20.4141 4.9428 357.3405 357.5775 357.7626 16.4247 355.4261 358.0521 346.3682 22.2036 4.7190 340.4731 4.9868 359.1514 27.5655 10.3095 353.7871 348.0371 336.5176 
-1.0350 88.0320 44.7478 4.0106 358.0978 181.2219 5.5353 5.0015 358.9920 351.1220 4.7517 359.6078 0.4656 346.4989 356.0757 12.8942 17.2453 354.0503 340.6074 357.9204 12.3331 299.9425 18.3336 5.4269 13.8809 355.1715 321.9413 84.1498 357.9611 335.4392 21.9575 359.3394 356.7255 42.7368 46.9459 22.4540 340.6928 353.6384 36.8726 276.7041 350.9972 21.1101 5.0327 357.6063 357.8447 357.8423 16.0544 355.3417 357.9465 346.3537 22.2150 4.9250 340.2576 5.0585 359.0921 27.9735 10.5059 353.9227 347.7635 336.4531 
-1.1399 88.0405 44.5508 4.1146 357.9313 180.9557 5.6453 4.8107 358.9569 350.6949 4.2858 359.5409 0.4308 346.6749 356.1477 13.2477 17.4542 354.0507 340.6719 357.9007 12.4569 300.0338 18.1217 5.9579 13.7788 355.2573 322.0502 84.2235 358.1676 335.1868 22.0155 359.3754 356.9352 43.0368 47.3236 22.1429 340.8582 353.6467 36.9122 276.7526 351.1437 21.4560 5.0248 357.8666 358.1161 357.9588 15.5975 355.4853 357.8530 346.3644 22.0830 5.0796 339.9280 5.2034 359.0409 28.4742 10.6899 353.9089 347.5567 336.3412 
-1.2250 88.0430 44.3469 4.2334 357.8755 180.7557 5.6766 4.7101 358.9536 350.4207 3.9855 359.5195 0.4397 346.6803 356.1497 13.4941 17.6896 353.9798 340.7715 357.8939 12.4813 300.0971 17.8873 6.3588 13.6434 355.3265 322.1533 84.1414 358.2499 334.9190 21.9516 359.3961 356.9850 43.4128 47.4362 21.9135 341.1132 353.7070 37.0874 276.7861 351.3468 21.7804 5.0487 358.2284 358.3308 358.0608 15.1521 355.4588 357.8268 346.4019 22.0986 5.2378 339.6884 5.3257 359.0259 29.0011 10.5892 353.9344 347.3131 336.4109 
-1.3077 88.0412 44.1299 4.3759 357.8977 180.6563 5.8145 4.6964 358.8512 350.0740 3.6556 359.4023 0.4272 346.7722 356.1389 13.7750 17.8818 353.9008 340.8527 357.8905 12.4561 300.2132 17.7370 6.7818 13.5535 355.3519 322.2498 83.8610 358.2972 334.6685 21.9441 359.4189 356.9879 43.6662 47.7797 21.7236 341.2301 353.6999 37.1569 276.9398 351.2972 21.8546 5.0841 358.6687 358.4223 358.1687 14.6717 355.5227 357.7579 346.4432 22.0464 5.3725 339.5330 5.3657 359.0623 29.5325 10.3555 354.2543 346.9960 336.5757 
-1.3697 88.0420 43.9100 4.4895 357.8843 180.5265 5.8782 4.6839 358.7592 349.7756 3.2282 359.2830 0.3822 346.9480 356.1681 14.1272 18.0698 353.8602 340.8355 357.8469 12.7083 300.4323 18.6394 6.9924 14.0763 355.0875 322.5607 83.3525 358.2347 335.1619 21.9819 359.4152 357.0589 43.9443 48.2521 21.4253 341.3055 353.6811 37.2506 276.9905 351.2833 21.7723 5.1225 359.0933 358.5471 358.2529 14.1655 355.5662 357.6609 346.4812 22.0043 5.5004 339.2939 5.4837 359.1387 30.1003 10.1629 354.4406 346.6122 336.4667 
-1.4174 88.0431 43.7302 4.5879 357.7407 180.4086 5.8819 4.6145 358.6824 349.5535 2.7431 359.1679 0.3443 347.1137 356.1952 14.4537 18.2405 353.8183 340.7874 357.8133 12.9265 300.6598 19.4791 7.2165 14.5842 354.9421 322.8547 82.9909 358.1521 335.6933 22.0028 359.4296 357.1204 44.2487 48.6729 21.0880 341.4359 353.6979 37.4386 277.0245 351.3834 21.6863 5.1657 359.3291 358.7124 358.3137 13.7173 355.5741 357.7049 346.5531 21.9939 5.6274 338.8343 5.5808 359.2344 30.7341 9.8584 354.6577 346.3127 336.4792 
-1.4753 88.0393 43.5882 4.6530 357.4544 180.3234 5.8915 4.4256 358.5931 349.3217 2.3129 359.0366 0.3034 347.2224 356.2266 14.7463 18.3716 353.7923 340.8328 357.8418 12.8425 300.7915 18.8551 7.6111 14.2633 355.1817 322.7997 82.8617 358.1743 335.2541 21.9816 359.4425 357.1293 44.4882 49.1169 20.8645 341.4766 353.6852 37.5987 277.2644 351.2234 21.5656 5.1612 359.3622 358.8431 358.3773 13.3196 355.6521 357.9662 346.6764 21.9837 5.6829 338.1685 5.6017 359.3450 31.3802 9.6662 354.7553 346.1511 336.5538 
-1.5363 88.0341 43.3622 4.7211 357.4246 180.2248 5.8671 4.4056 358.5340 349.1647 1.9761 358.9463 0.3269 347.3788 356.2654 14.9306 18.4119 353.7928 340.7987 357.7900 13.1064 300.9589 19.8945 7.6342 14.8632 354.9022 323.0858 82.4549 358.0643 335.8916 21.9390 359.4273 357.0685 44.6692 49.5684 20.7114 341.5493 353.6828 37.8392 277.3820 351.3026 21.3359 5.1508 359.7917 358.8918 358.4540 12.7607 355.8303 358.1186 346.7864 21.9092 5.7107 337.8687 5.6084 359.5141 31.8610 9.4383 355.0084 346.0060 336.6131 
-1.5937 88.0270 43.1409 4.7832 357.3602 180.1335 5.9098 4.3286 358.4389 348.9047 1.7533 358.8299 0.4090 347.4115 356.2798 15.1341 18.5291 353.7476 340.8221 357.7707 13.2086 301.1261 20.4036 7.7195 15.1102 354.8642 323.2873 82.5605 357.9198 336.4215 21.9560 359.4009 356.8810 44.4569 50.0217 20.9267 341.8605 353.7880 38.1770 277.3853 351.3993 21.1167 5.1241 0.1671 358.9453 358.5501 12.2405 355.8988 358.0426 346.8397 21.8649 5.7263 337.5190 5.6667 359.6983 32.2972 9.2966 355.1865 345.8232 336.4181 
-1.6366 88.0206 42.8965 4.8801 357.3157 180.0672 5.9228 4.3157 358.3542 348.7728 1.4024 358.7139 0.4574 347.6151 356.2918 15.3790 18.5535 353.7131 340.7954 357.7520 13.2201 301.2689 20.5733 7.9384 15.2958 354.8373 323.3598 82.2678 357.9717 336.6284 21.8994 359.3754 356.7888 44.6535 50.5554 20.7269 341.9555 353.7416 38.5834 277.6241 351.5451 21.1238 5.1351 0.5921 358.9955 358.6532 11.6931 355.9134 357.8064 346.8249 21.8812 5.7811 337.2336 5.6407 359.8925 32.5645 8.8117 354.9264 345.8985 336.4559 
-1.6741 88.0118 42.6444 4.9707 357.2624 179.9665 5.9308 4.2471 358.2960 348.6695 1.2041 358.6322 0.4849 347.7222 356.2993 15.6591 18.5804 353.6691 340.7932 357.7587 13.2104 301.4079 20.5824 8.0057 15.2780 354.8940 323.4673 82.4174 357.8987 336.7662 21.7835 359.3517 356.6729 44.8416 51.0220 20.6276 342.0553 353.7139 38.8656 277.7247 351.1317 21.1055 5.1281 1.0158 359.1326 358.8013 11.1379 355.9392 357.8077 346.9020 21.8301 5.8332 336.9285 5.5750 0.0527 32.7377 8.3396 355.1006 345.8143 336.6108 
-1.7129 88.0077 42.3766 5.0690 357.3224 179.8647 5.9718 4.3325 358.2141 348.5619 0.9443 358.5316 0.5330 347.9513 356.2717 15.9889 18.5170 353.5907 340.7954 357.7458 13.1457 301.4671 20.7274 8.1105 15.3819 354.8724 323.6232 82.6031 357.7375 336.9425 21.7171 359.3182 356.4326 44.7624 51.5358 20.7427 342.1810 353.7004 39.2624 278.1187 351.1543 20.9963 5.1291 1.5939 359.1011 358.9057 10.5374 356.1235 357.7596 346.9702 21.7748 5.8846 336.7277 5.5639 0.1967 32.8745 8.0535 355.2023 345.8435 336.5372 
